<svg width="67" height="69" viewBox="0 0 67 69" fill="none" xmlns="http://www.w3.org/2000/svg">
<path d="M33.462 2.875L36.0879 2.99534L38.6938 3.35545L41.26 3.9526L43.7667 4.78222L46.1951 5.83802L48.5265 7.11195L50.7433 8.59432L52.8286 10.2738L54.7665 12.1377L56.5422 14.1718L58.1423 16.3606L59.5546 18.6875L60.7682 21.1347L61.7741 23.6836L62.5645 26.3148L63.1334 29.0084L63.4764 31.7437L63.5911 34.5L63.4764 37.2563L63.1334 39.9916L62.5645 42.6852L61.7741 45.3164L60.7682 47.8653L59.5546 50.3125L58.1423 52.6394L56.5422 54.8282L54.7665 56.8623L52.8286 58.7262L50.7433 60.4057L48.5265 61.8881L46.1951 63.162L43.7667 64.2178L41.26 65.0474L38.6938 65.6445L36.0879 66.0047L33.462 66.125L30.8361 66.0047L28.2301 65.6445L25.664 65.0474L23.1572 64.2178L20.7289 63.162L18.3974 61.8881L16.1806 60.4057L14.0954 58.7262L12.1575 56.8623L10.3817 54.8282L8.78166 52.6394L7.36941 50.3125L6.15573 47.8653L5.14988 45.3164L4.3595 42.6852L3.7906 39.9916L3.44752 37.2563L3.33287 34.5L3.44752 31.7437L3.7906 29.0084L4.3595 26.3148L5.14988 23.6836L6.15573 21.1347L7.36941 18.6875L8.78166 16.3606L10.3817 14.1718L12.1575 12.1377L14.0954 10.2738L16.1806 8.59432L18.3974 7.11195L20.7289 5.83802L23.1572 4.78222L25.664 3.9526L28.2301 3.35545L30.8361 2.99534L33.462 2.875Z" stroke="#E7FA14" stroke-width="4"/>
</svg>
