<svg width="243" height="57" viewBox="0 0 243 57" fill="none" xmlns="http://www.w3.org/2000/svg">
<path d="M0.862457 41.6522C7.22317 41.6522 7.22317 44.0435 13.5839 44.0435C19.9446 44.0435 19.9446 23.7174 26.3053 23.7174C32.666 23.7174 32.666 17.7391 39.0267 17.7391C45.3875 17.7391 45.3875 24.913 51.7482 24.913C58.1089 24.913 58.1089 46.4348 64.4696 46.4348C70.8303 46.4348 70.8303 29.6957 77.191 29.6957C83.5517 29.6957 83.5517 56 89.9125 56C96.2732 56 96.2732 21.3261 102.634 21.3261C108.995 21.3261 108.995 35.6739 115.355 35.6739C121.716 35.6739 121.716 1 128.077 1C134.437 1 134.437 11.7609 140.798 11.7609C147.159 11.7609 147.159 47.6304 153.52 47.6304C159.88 47.6304 159.88 50.0217 166.241 50.0217C172.602 50.0217 172.602 18.9348 178.962 18.9348C185.323 18.9348 185.323 32.087 191.684 32.087C198.045 32.087 198.045 46.4348 204.405 46.4348C210.766 46.4348 210.766 5.78261 217.127 5.78261C223.487 5.78261 223.487 40.4565 229.848 40.4565C236.209 40.4565 236.209 50.0217 242.57 50.0217M242.57 50.0217V50.0217Z" stroke="#FFA800"/>
</svg>
