<svg width="15" height="14" viewBox="0 0 15 14" fill="none" xmlns="http://www.w3.org/2000/svg">
<g clip-path="url(#clip0_13_49)">
<path d="M9.375 10.5C9.375 11.4665 10.2145 12.25 11.25 12.25C12.2855 12.25 13.125 11.4665 13.125 10.5C13.125 9.5335 12.2855 8.75 11.25 8.75C10.2145 8.75 9.375 9.5335 9.375 10.5ZM9.375 10.5C7.88316 10.5 6.45242 9.94688 5.39752 8.96231C4.34263 7.97774 3.75 6.64239 3.75 5.25M3.75 5.25C4.78553 5.25 5.625 4.4665 5.625 3.5C5.625 2.5335 4.78553 1.75 3.75 1.75C2.71447 1.75 1.875 2.5335 1.875 3.5C1.875 4.4665 2.71447 5.25 3.75 5.25ZM3.75 5.25L3.75 12.25" stroke="#FFA800" stroke-width="2" stroke-linecap="round" stroke-linejoin="round"/>
</g>
<defs>
<clipPath id="clip0_13_49">
<rect width="15" height="14" fill="white"/>
</clipPath>
</defs>
</svg>
