<svg width="15" height="14" viewBox="0 0 15 14" fill="none" xmlns="http://www.w3.org/2000/svg">
<g clip-path="url(#clip0_13_19)">
<path d="M11.25 8.75001C10.2145 8.75001 9.375 9.53351 9.375 10.5C9.375 11.4665 10.2145 12.25 11.25 12.25C12.2855 12.25 13.125 11.4665 13.125 10.5C13.125 9.53351 12.2855 8.75001 11.25 8.75001ZM11.25 8.75001L11.25 4.66667C11.25 4.35725 11.1183 4.06051 10.8839 3.84172C10.6495 3.62292 10.3315 3.50001 10 3.50001H8.125M3.75 5.25001C4.78553 5.25001 5.625 4.46651 5.625 3.50001C5.625 2.53351 4.78553 1.75001 3.75 1.75001C2.71447 1.75001 1.875 2.53351 1.875 3.50001C1.875 4.46651 2.71447 5.25001 3.75 5.25001ZM3.75 5.25001L3.75 12.25" stroke="#E7FA14" stroke-width="2" stroke-linecap="round" stroke-linejoin="round"/>
</g>
<defs>
<clipPath id="clip0_13_19">
<rect width="15" height="14" fill="white"/>
</clipPath>
</defs>
</svg>
