<svg width="14" height="13" viewBox="0 0 14 13" fill="none" xmlns="http://www.w3.org/2000/svg">
<g clip-path="url(#clip0_13_34)">
<g style="mix-blend-mode:color-burn">
<path d="M5.06197 10.2917C2.35731 11.1042 2.35731 8.9375 1.27545 8.66667M8.8485 11.9167V9.82042C8.86879 9.56213 8.83394 9.30248 8.74627 9.05872C8.6586 8.81496 8.52011 8.59269 8.34002 8.40667C10.0385 8.21708 11.8236 7.5725 11.8236 4.615C11.8235 3.85874 11.533 3.13148 11.0122 2.58375C11.2588 1.92211 11.2414 1.19077 10.9635 0.541667C10.9635 0.541667 10.3252 0.352084 8.8485 1.34333C7.60868 1.00686 6.30178 1.00686 5.06197 1.34333C3.58523 0.352084 2.94693 0.541667 2.94693 0.541667C2.66909 1.19077 2.65166 1.92211 2.89824 2.58375C2.37361 3.13555 2.0828 3.86938 2.08684 4.63125C2.08684 7.56708 3.87192 8.21167 5.57045 8.42292C5.39248 8.60707 5.25523 8.82668 5.16762 9.06746C5.08001 9.30824 5.04402 9.56479 5.06197 9.82042V11.9167" stroke="#1E1E1E" stroke-width="2" stroke-linecap="round" stroke-linejoin="round"/>
</g>
</g>
<defs>
<clipPath id="clip0_13_34">
<rect width="12.9824" height="13" fill="white" transform="translate(0.193581)"/>
</clipPath>
</defs>
</svg>
